<svg xmlns="http://www.w3.org/2000/svg" width="32" height="32" viewBox="0 0 32 32">
    <path fill="#F94C6A" fill-rule="nonzero" d="M23.326 16l7.92-7.92A2.492 2.492 0 0 0 32 6.25c0-.72-.252-1.33-.754-1.832L27.583.754A2.494 2.494 0 0 0 25.75 0c-.718 0-1.329.251-1.832.754L16 8.674 8.08.753A2.493 2.493 0 0 0 6.25 0C5.53 0 4.92.251 4.417.754L.754 4.418A2.494 2.494 0 0 0 0 6.249c0 .719.251 1.33.754 1.832L8.674 16l-7.92 7.918A2.495 2.495 0 0 0 0 25.751c0 .718.251 1.329.754 1.832l3.664 3.663A2.493 2.493 0 0 0 6.249 32c.719 0 1.33-.252 1.832-.754l7.92-7.92 7.919 7.92a2.492 2.492 0 0 0 1.832.754c.718 0 1.329-.252 1.831-.754l3.663-3.663A2.492 2.492 0 0 0 32 25.75c0-.718-.251-1.329-.754-1.832L23.326 16z"/>
</svg>
