<svg xmlns="http://www.w3.org/2000/svg" width="37" height="37" viewBox="0 0 37 37">
    <path fill="#FFF" fill-rule="nonzero" d="M18.5 0C8.282 0 0 8.282 0 18.5S8.282 37 18.5 37 37 28.717 37 18.5 28.718 0 18.5 0zm0 34.688c-8.94 0-16.188-7.248-16.188-16.188C2.313 9.56 9.56 2.312 18.5 2.312c8.94 0 16.188 7.248 16.188 16.188 0 8.94-7.248 16.188-16.188 16.188zm6.938-17.344h-5.782v-5.782a1.157 1.157 0 0 0-2.312 0v5.782h-5.782a1.157 1.157 0 0 0 0 2.312h5.782v5.782a1.157 1.157 0 0 0 2.312 0v-5.782h5.782a1.157 1.157 0 0 0 0-2.312z"/>
</svg>
