<svg xmlns="http://www.w3.org/2000/svg" width="37" height="38" viewBox="0 0 37 38">
    <g fill="#FFF" fill-rule="nonzero">
        <path d="M18.696 23.701c.46.46 1.206.46 1.667 0L25.076 19l-4.713-4.701a1.18 1.18 0 0 0-1.667 0 1.174 1.174 0 0 0 0 1.662l1.869 1.864H1.215a1.175 1.175 0 0 0 0 2.35h19.35l-1.869 1.864a1.174 1.174 0 0 0 0 1.662z"/>
        <path d="M9.859 3v10.515h2.356V3.351a1 1 0 0 1 1-1h20.389a1 1 0 0 1 1 1v31.298a1 1 0 0 1-1 1H13.215a1 1 0 0 1-1-1V24.485H9.86V35a3 3 0 0 0 3 3H33.96a3 3 0 0 0 3-3V3a3 3 0 0 0-3-3H12.859a3 3 0 0 0-3 3z"/>
    </g>
</svg>
