<svg xmlns="http://www.w3.org/2000/svg" width="49" height="49" viewBox="0 0 49 49">
    <path fill="#FFF" fill-rule="nonzero" d="M41.464 41.463c9.474-9.472 9.473-24.885.001-34.357-9.474-9.474-24.888-9.474-34.36-.002-9.474 9.473-9.473 24.887 0 34.361 9.472 9.472 24.886 9.472 34.36-.002zM9.755 9.754c8.011-8.01 21.047-8.012 29.06.001 8.011 8.011 8.01 21.048-.001 29.059-8.011 8.011-21.047 8.012-29.059 0-8.013-8.011-8.012-21.049 0-29.06zm17.198 9.329a3.99 3.99 0 0 1 3.986-3.985 3.989 3.989 0 0 1 3.984 3.985 1.145 1.145 0 1 1-2.29 0c0-.935-.76-1.695-1.694-1.695-.935 0-1.696.76-1.696 1.695a1.145 1.145 0 1 1-2.29 0zm-12.695-.012a3.99 3.99 0 0 1 3.985-3.985 3.99 3.99 0 0 1 3.985 3.985 1.145 1.145 0 1 1-2.29 0c0-.935-.76-1.695-1.695-1.695s-1.696.76-1.696 1.695a1.145 1.145 0 1 1-2.29 0zm-.508 10.235a1.373 1.373 0 1 1 2.537-1.054c1.272 3.062 4.422 5.04 8.025 5.04 3.521 0 6.653-1.98 7.977-5.043a1.373 1.373 0 1 1 2.522 1.09c-1.76 4.07-5.882 6.7-10.5 6.7-4.716 0-8.862-2.643-10.561-6.733z"/>
</svg>
